Coordinates
version=1
nRows=14
nColumns=36
inDegrees=yes

Units are S.I. units (second, meters, Newtons, ...)
If the header above contains a line with 'inDegrees', this indicates whether rotational values are in degrees (yes) or radians (no).

endheader
time	pelvis_tilt	pelvis_list	pelvis_rotation	pelvis_tx	pelvis_ty	pelvis_tz	hip_flexion_r	hip_adduction_r	hip_rotation_r	knee_angle_r	knee_angle_r_beta	ankle_angle_r	subtalar_angle_r	mtp_angle_r	hip_flexion_l	hip_adduction_l	hip_rotation_l	knee_angle_l	knee_angle_l_beta	ankle_angle_l	subtalar_angle_l	mtp_angle_l	lumbar_extension	lumbar_bending	lumbar_rotation	arm_flex_r	arm_add_r	arm_rot_r	elbow_flex_r	pro_sup_r	arm_flex_l	arm_add_l	arm_rot_l	elbow_flex_l	pro_sup_l
      0.00000000	    -10.33876928	      1.35978725	      5.61629246	     -0.11781580	      0.90668448	     -0.28719064	     35.95282595	     -2.56196152	     -4.29008959	      5.27721797	      0.09210483	      7.22278932	     -1.87920424	     -7.13555432	     -4.70225747	      3.36911543	      2.19417139	      7.50031342	      0.13090516	     14.41518763	      7.39334515	     -7.13555432	      6.49392103	     -2.72278522	     -8.56306896	    -16.27324988	     -7.99038552	     -7.78032258	      9.12022478	     81.90009111	     17.86994557	    -19.92347199	      8.56458362	     36.38224970	     78.88167692
      0.01000000	    -10.31939493	      0.95766127	      5.52473859	     -0.10329879	      0.90471004	     -0.28643838	     35.95533249	     -1.93804453	     -4.50577936	      6.13551411	      0.10708492	      6.31596094	     -2.05199104	     -7.14222308	     -5.23564975	      2.78721679	      2.11814253	      8.25876781	      0.14414269	     14.50854840	      7.25220911	     -7.14222308	      6.68320301	     -2.19602318	     -8.44476510	    -16.57638960	     -8.22132690	     -7.68602115	      9.03944838	     82.01335285	     17.71140421	    -19.64064000	      8.58681538	     36.56386687	     78.93317668
      0.02000000	    -10.11571705	      0.53636955	      5.41751331	     -0.08837641	      0.90279283	     -0.28559350	     35.71116283	     -1.24236480	     -4.30332278	      7.24800964	      0.12650163	      4.89874329	     -3.23567790	     -7.15768460	     -5.88460556	      2.15103255	      1.93824161	      9.17189374	      0.16007974	     14.45832062	      7.24263825	     -7.15768460	      6.75447709	     -1.61137656	     -8.35835113	    -16.47094618	     -8.42218067	     -7.46975973	      8.19190826	     82.41616820	     17.49875773	    -19.31831776	      8.32136163	     36.60627738	     79.08929427
      0.03000000	     -9.99638649	      0.11178164	      5.31274795	     -0.07294139	      0.90087209	     -0.28482218	     35.58531579	     -0.59941047	     -4.52548962	      8.72893243	      0.15234861	      4.01009131	     -3.41054764	     -7.16211462	     -6.35798984	      1.52137358	      1.77221420	     10.25493560	      0.17898239	     14.15171646	      7.04438347	     -7.16211462	      6.89410556	     -1.00773568	     -8.29545097	    -16.74546849	     -8.68497072	     -7.46576380	      8.41237852	     82.39005635	     17.10624988	    -19.05587815	      8.32865229	     36.66523490	     79.05072538
      0.04000000	     -9.80405809	     -0.40445700	      5.19315000	     -0.05706979	      0.89936010	     -0.28413252	     35.30592706	      0.13847789	     -4.69679705	     10.23908514	      0.17870575	      2.92571239	     -3.84383470	     -7.16659912	     -6.81482215	      0.78592890	      1.56643699	     11.53354484	      0.20129833	     13.69832071	      6.81391210	     -7.16659912	      7.00741004	     -0.27400272	     -8.16983927	    -16.96034477	     -8.97399810	     -7.46804499	      8.47604817	     82.36079100	     16.65526413	    -18.68846040	      8.31814935	     36.71835330	     79.00059720
      0.05000000	     -9.38679453	     -0.94616022	      5.03038877	     -0.04109708	      0.89856242	     -0.28324360	     34.65992957	      1.05593964	     -3.92324849	     11.54746567	      0.20154130	      0.79638700	     -6.30841527	     -7.18045325	     -7.43146371	     -0.01084844	      1.35685270	     12.96304725	      0.22624786	     13.00633473	      6.48272172	     -7.18045325	      6.95075036	      0.46851253	     -8.09745091	    -16.54245921	     -9.20159063	     -7.35993983	      7.19349615	     82.60986467	     16.06264885	    -18.21074937	      7.66886254	     36.62851828	     78.94220516
      0.06000000	     -9.14383550	     -1.45640788	      4.91881246	     -0.02528695	      0.89800239	     -0.28264312	     34.24960386	      1.77886193	     -4.03590256	     13.05993117	      0.22793880	      0.04175986	     -6.52771559	     -7.18490971	     -7.72264129	     -0.77026448	      1.07155386	     14.62227273	      0.25520680	     12.00553064	      6.27178311	     -7.18490971	      7.05217907	      1.18015052	     -7.98274928	    -16.74169816	     -9.50238580	     -7.34281687	      7.39766007	     82.59188869	     15.41062803	    -17.83946578	      7.64596612	     36.61432190	     78.88997089
      0.07000000	     -8.78793480	     -1.95622219	      4.80866173	     -0.00987126	      0.89799783	     -0.28197715	     33.59468630	      2.59186200	     -3.50398895	     14.29023355	      0.24941163	     -1.37592553	     -8.18883360	     -7.20066439	     -8.01302879	     -1.52182149	      0.95367747	     16.45748176	      0.28723724	     10.58833535	      5.67266319	     -7.20066439	      7.10474919	      1.84616492	     -8.09214462	    -16.40121297	     -9.77025896	     -7.09459044	      6.63035270	     82.86386925	     14.49195273	    -17.42451771	      6.86424419	     36.50085541	     78.77076880
      0.08000000	     -8.50943500	     -2.47144828	      4.73045492	      0.00502477	      0.89814320	     -0.28148412	     32.99452571	      3.33006810	     -3.38465801	     15.46036719	      0.26983431	     -2.03988430	     -8.78855763	     -7.25712005	     -8.03352437	     -2.30348797	      0.78040922	     18.55216418	      0.32379635	      8.83017234	      5.26544865	     -7.25712005	      7.17707750	      2.53785213	     -8.72175678	    -15.81783696	    -10.28947429	     -5.88187848	      6.10286882	     84.07884016	     12.86916963	    -17.03125382	      4.81101501	     37.08931986	     78.86925060
      0.09000000	     -8.18578679	     -2.96343232	      4.64427988	      0.01939065	      0.89839254	     -0.28091926	     32.28107691	      4.06664630	     -3.21202187	     16.47084908	      0.28747055	     -2.43338110	     -9.41265711	     -7.26444397	     -7.90975545	     -3.07455485	      0.63041476	     20.91172093	      0.36497838	      6.65743087	      4.73119188	     -7.26444397	      7.18131427	      3.21493889	     -8.54935586	    -15.79499683	    -10.52851507	     -5.84469137	      6.25889080	     84.04954332	     12.11862667	    -16.59010183	      4.85361351	     36.76281748	     78.85871763
      0.10000000	     -7.85966513	     -3.38709064	      4.58093271	      0.03329023	      0.89862778	     -0.28025217	     31.52198066	      4.74259438	     -2.95540887	     17.36836259	      0.30313511	     -2.61886949	    -10.13863609	     -7.27264720	     -7.56536114	     -3.77986417	      0.57999027	     23.55377340	      0.41109090	      4.02042748	      4.01083372	     -7.27264720	      7.16283383	      3.75828946	     -8.46186631	    -15.53531088	    -10.74734596	     -5.72325028	      6.23700562	     84.05970096	     11.33847356	    -16.18886167	      4.77617206	     36.19907454	     78.82351177
      0.11000000	     -7.52886089	     -3.79534750	      4.50508156	      0.04695202	      0.89889893	     -0.27943141	     30.68529681	      5.41286177	     -2.73689193	     18.11735796	      0.31620755	     -2.45578713	    -10.67166527	     -7.27995387	     -6.99595852	     -4.47429171	      0.57641857	     26.48964703	      0.46233156	      1.11341310	      3.33189027	     -7.27995387	      7.11857803	      4.25868295	     -8.38996075	    -15.18803443	    -10.96003753	     -5.53868854	      6.23278835	     84.09153296	     10.56961313	    -15.79121789	      4.67710681	     35.61408860	     78.77588087
      0.12000000	     -7.31180620	     -4.09246528	      4.43707249	      0.06059039	      0.89918134	     -0.27822956	     29.90446266	      5.96970476	     -2.54937917	     18.77586766	      0.32770071	     -1.60454457	    -10.81657016	     -7.29071116	     -6.07970772	     -5.13192127	      0.39827814	     29.69751207	      0.51831937	     -1.78821679	      3.33011875	     -7.29071116	      7.10707515	      4.60078818	     -8.06428444	    -15.26422397	    -11.06108902	     -5.45169163	      7.32334607	     83.52025811	      9.62612068	    -15.52533597	      4.67556779	     35.80043996	     78.32070014
      0.13000000	     -6.77935533	     -4.41028918	      4.44248071	      0.07387828	      0.90031023	     -0.27728971	     28.71255652	      6.53540158	     -2.41103608	     19.24023046	      0.33580537	     -1.40370317	    -11.58552258	     -7.30028797	     -5.27833768	     -5.66667154	      0.80181413	     33.05180339	      0.57686279	     -5.22523797	      1.89031110	     -7.30028797	      6.77836588	      5.07851146	     -8.29709605	    -14.04186410	    -11.31759707	     -4.95298795	      6.25204862	     83.61593134	      9.04996294	    -15.11160920	      4.49682561	     34.15896722	     78.24267067
